<svg xmlns="http://www.w3.org/2000/svg" width="760" height="205" viewBox="0 0 760 205" role="img" aria-label="Most Used Languages">
  <defs>
    <linearGradient id="accent" x1="0" y1="0" x2="1" y2="0"><stop offset="0%" stop-color="#70a5fd"/><stop offset="100%" stop-color="#bb9af7"/></linearGradient>
  </defs>
  <rect width="760" height="205" rx="14" fill="#1a1b27"/>
  <rect x="1" y="1" width="758" height="203" rx="13" fill="none" stroke="#30363d"/>
  <text x="24" y="34" fill="#70a5fd" font-family="Segoe UI, Ubuntu, sans-serif" font-size="18" font-weight="700">Most Used Languages</text>
  <rect x="24.0" y="54" width="343.0" height="10" fill="#3178c6"/>
  <rect x="367.0" y="54" width="136.0" height="10" fill="#4F5D95"/>
  <rect x="503.0" y="54" width="84.8" height="10" fill="#f1e05a"/>
  <rect x="587.8" y="54" width="53.2" height="10" fill="#3572A5"/>
  <rect x="641.0" y="54" width="46.8" height="10" fill="#41b883"/>
  <rect x="687.8" y="54" width="20.3" height="10" fill="#7aa2f7"/>
  <rect x="708.2" y="54" width="16.8" height="10" fill="#563d7c"/>
  <rect x="725.0" y="54" width="11.0" height="10" fill="#e34c26"/>
  <circle cx="34" cy="88" r="5" fill="#3178c6"/>
  <text x="48" y="92" fill="#c0caf5" font-family="Segoe UI, Ubuntu, sans-serif" font-size="12">TypeScript 48.2%</text>
  <circle cx="389" cy="88" r="5" fill="#4F5D95"/>
  <text x="403" y="92" fill="#c0caf5" font-family="Segoe UI, Ubuntu, sans-serif" font-size="12">PHP 19.1%</text>
  <circle cx="34" cy="113" r="5" fill="#f1e05a"/>
  <text x="48" y="117" fill="#c0caf5" font-family="Segoe UI, Ubuntu, sans-serif" font-size="12">JavaScript 11.9%</text>
  <circle cx="389" cy="113" r="5" fill="#3572A5"/>
  <text x="403" y="117" fill="#c0caf5" font-family="Segoe UI, Ubuntu, sans-serif" font-size="12">Python 7.5%</text>
  <circle cx="34" cy="138" r="5" fill="#41b883"/>
  <text x="48" y="142" fill="#c0caf5" font-family="Segoe UI, Ubuntu, sans-serif" font-size="12">Vue 6.6%</text>
  <circle cx="389" cy="138" r="5" fill="#7aa2f7"/>
  <text x="403" y="142" fill="#c0caf5" font-family="Segoe UI, Ubuntu, sans-serif" font-size="12">Blade 2.9%</text>
  <circle cx="34" cy="163" r="5" fill="#563d7c"/>
  <text x="48" y="167" fill="#c0caf5" font-family="Segoe UI, Ubuntu, sans-serif" font-size="12">CSS 2.4%</text>
  <circle cx="389" cy="163" r="5" fill="#e34c26"/>
  <text x="403" y="167" fill="#c0caf5" font-family="Segoe UI, Ubuntu, sans-serif" font-size="12">HTML 1.5%</text>
</svg>