<svg width="1200" height="360" viewBox="0 0 1200 360" fill="none" xmlns="http://www.w3.org/2000/svg">
  <defs>
    <linearGradient id="bg" x1="0" y1="0" x2="1200" y2="360" gradientUnits="userSpaceOnUse">
      <stop stop-color="#0D1117"/>
      <stop offset="1" stop-color="#111827"/>
    </linearGradient>
    <linearGradient id="accent" x1="120" y1="80" x2="1080" y2="280" gradientUnits="userSpaceOnUse">
      <stop stop-color="#22D3EE"/>
      <stop offset="0.5" stop-color="#38BDF8"/>
      <stop offset="1" stop-color="#8B5CF6"/>
    </linearGradient>
    <filter id="glow" x="-20%" y="-20%" width="140%" height="140%">
      <feGaussianBlur stdDeviation="12" result="blur"/>
      <feMerge>
        <feMergeNode in="blur"/>
        <feMergeNode in="SourceGraphic"/>
      </feMerge>
    </filter>
  </defs>

  <rect width="1200" height="360" rx="28" fill="url(#bg)"/>
  <rect x="1" y="1" width="1198" height="358" rx="27" stroke="#263244" stroke-width="2"/>

  <circle cx="1060" cy="70" r="120" fill="#22D3EE" fill-opacity="0.06"/>
  <circle cx="110" cy="310" r="160" fill="#8B5CF6" fill-opacity="0.05"/>

  <g opacity="0.28">
    <path d="M0 80H1200M0 160H1200M0 240H1200M0 320H1200" stroke="#334155"/>
    <path d="M120 0V360M240 0V360M360 0V360M480 0V360M600 0V360M720 0V360M840 0V360M960 0V360M1080 0V360" stroke="#334155"/>
  </g>

  <rect x="88" y="72" width="1024" height="216" rx="24" fill="#0F172A" fill-opacity="0.72" stroke="#334155"/>

  <g filter="url(#glow)">
    <circle cx="176" cy="180" r="48" stroke="url(#accent)" stroke-width="6"/>
    <path d="M156 204V156H177C193 156 202 165 202 178C202 190 194 198 182 200L204 204" stroke="url(#accent)" stroke-width="6" stroke-linecap="round" stroke-linejoin="round"/>
  </g>

  <text x="260" y="145" fill="#F8FAFC" font-family="Inter,Segoe UI,Arial,sans-serif" font-size="54" font-weight="700" letter-spacing="1">RICCARDO SENSI</text>
  <text x="262" y="194" fill="#7DD3FC" font-family="Inter,Segoe UI,Arial,sans-serif" font-size="25" font-weight="600" letter-spacing="4">FULL STACK DEVELOPER</text>
  <text x="262" y="238" fill="#CBD5E1" font-family="Inter,Segoe UI,Arial,sans-serif" font-size="22">Web platforms • Mobile apps • Backend systems • AI-powered tools</text>

  <rect x="936" y="106" width="118" height="34" rx="17" fill="#0B1220" stroke="#334155"/>
  <circle cx="958" cy="123" r="6" fill="#22C55E"/>
  <text x="972" y="129" fill="#CBD5E1" font-family="Inter,Segoe UI,Arial,sans-serif" font-size="14">Italy</text>

  <path d="M88 316H1112" stroke="url(#accent)" stroke-width="3" stroke-linecap="round"/>
</svg>
